<?xml version="1.0" encoding="UTF-8"?>
<svg width="1200pt" height="1200pt" version="1.1" viewBox="0 0 1200 1200" xmlns="http://www.w3.org/2000/svg">
 <g fill="#007335">
  <path d="m1077.6 1002c0-36-49.199-39.602-100.8-43.199-21.602-1.1992-60-4.8008-70.801-10.801 4.8008-9.6016 8.3984-19.199 13.199-27.602 26.398-56.398 52.801-110.4 21.602-177.6-24-54-100.8-80.398-138-90 9.6016-44.398 3.6016-121.2 0-158.4 69.602-48 116.4-132 135.6-168l2.3984-4.8008c18-33.602 12-141.6 9.6016-174l39.602-68.398c3.6016-7.1992 2.3984-15.602-2.3984-21.602-3.6055-8.3984-12.004-9.5977-19.207-5.9961l-39.598 20.398-32.398-50.398c-3.6016-6-12-9.6016-19.199-8.3984-7.1992 1.1992-13.199 7.1992-14.398 14.398l-8.3984 54-55.207-9.6016c-7.1992 0-14.398 3.6016-18 9.6016-3.6016 7.1992-2.3984 14.398 2.3984 20.398l60 67.199c8.3984 31.199 16.801 84 9.6016 105.6-4.8008 15.602-33.602 50.398-61.199 81.602 3.6016-36 4.8008-78-3.6016-96-20.398-38.398-88.801-127.2-148.8-136.8-1.1992 0-3.6016-1.1992-6-1.1992h-2.3984-2.3984c-2.3984 0-3.6016 0-6 1.1992-60 9.6016-128.4 98.398-148.8 136.8-13.199 25.199-4.8008 100.8 1.1992 138-43.199 20.398-88.801 34.801-100.8 31.199-4.7969-19.203 9.6016-69.602 21.602-102l61.199-68.398c4.8008-6 6-14.398 2.3984-20.398-3.6016-7.1992-10.801-10.801-18-9.6016l-56.398 8.3984-8.3984-54c-1.1992-7.1992-7.1992-13.199-14.398-14.398-7.1992-1.1992-14.398 1.1992-19.199 8.3984l-32.398 50.398-39.602-19.199c-7.1992-3.6016-15.602-2.3984-21.602 3.6016s-6 14.398-2.3984 21.602l38.398 68.398c-3.6016 33.602-15.602 139.2-2.3984 172.8 13.199 31.199 30 50.398 52.801 60 38.398 15.602 81.602-3.6016 118.8-20.398 4.8008-2.3984 10.801-4.8008 15.602-7.1992-4.8008 30-10.801 75.602-8.3984 111.6-18-6-42-13.199-68.398-18-74.398-16.801-123.6-13.199-151.2 7.1992-28.801 21.602-10.801 79.199 14.398 129.6-37.199-16.801-85.199-32.398-111.6-21.602-10.801 4.8008-19.199 13.199-22.801 24-3.6016 13.199-2.3984 25.199 4.8008 36 3.6016 6 8.3984 10.801 14.398 14.398-12 7.1992-20.398 16.801-20.398 31.199 0 12 4.8008 22.801 14.398 30 8.3984 7.1992 20.398 10.801 33.602 13.199-20.398 16.801-16.801 28.801-14.398 34.801 4.8008 15.602 15.602 22.801 22.801 26.398 27.602 12 64.801-7.1992 109.2-28.801 9.6016-4.8008 20.398-9.6016 30-14.398 10.801-4.8008 21.602-8.3984 32.398-12 26.398-8.3984 58.801-19.199 54-60-2.3984-22.801-22.801-46.801-39.602-67.199-1.1992-2.3984-3.6016-3.6016-4.8008-6 32.398 1.1992 103.2 16.801 160.8 54 31.199 20.398 102 49.199 229.2 13.199 57.602-15.602 62.398-4.8008 67.199 7.1992 1.1992 2.3984 2.3984 6 3.6016 8.3984 2.3984 10.801-3.6016 61.199-18 80.398-33.602 43.199-27.602 91.199 16.801 132 10.801 9.6016 20.398 37.199 28.801 61.199 14.398 39.602 27.602 76.801 55.199 88.801 4.8008 1.1992 9.6016 3.6016 16.801 3.6016 6 0 13.199-1.1992 20.398-4.8008 8.3984-3.6016 14.398-9.6016 16.801-18 4.8008-14.398-1.1992-31.199-8.3984-48 28.801 21.602 68.398 46.801 97.199 13.199 25.199-30-4.8008-56.398-20.398-70.801-3.6016-3.6016-9.6016-8.3984-13.199-13.199 3.6016-1.1992 9.6016-2.3984 14.398-2.3984 17.992-2.4023 51.594-7.1992 51.594-40.801zm-103.2 36c-4.8008 20.398 12 34.801 26.398 48 6 6 16.801 15.602 18 19.199l-1.1992 1.1992c-9.6016 10.801-39.602-12-57.602-25.199-21.602-16.801-37.199-28.801-54-16.801-18 14.398-6 37.199 3.6016 58.801 3.6016 8.3984 10.801 21.602 12 28.801-3.6016 1.1992-4.8008 0-6 0-13.199-6-25.199-42-34.801-67.199-10.801-31.199-21.602-60-38.398-75.602-30-27.602-34.801-54-13.199-82.801 22.801-28.801 31.199-100.8 21.602-118.8-1.1992-1.1992-1.1992-3.6016-2.3984-6-12-31.199-36-49.199-110.4-27.602-110.4 30.004-171.61 6.0039-198-10.797-74.398-48-170.4-66-204-57.602-9.6016 2.3984-15.602 7.1992-19.199 13.199-8.3984 15.602 3.6016 28.801 20.398 49.199 12 14.398 30 36 31.199 48 1.1992 8.3984 1.1992 10.801-28.801 20.398-10.801 3.6016-22.801 7.1992-36 13.199-10.801 4.8008-20.398 9.6016-31.199 14.398-27.602 13.199-67.199 32.398-79.199 27.602 9.6016-8.3984 33.602-21.602 57.602-32.398 8.3984-3.6016 13.199-13.199 9.6016-21.602-3.6016-8.3984-12-14.398-20.398-12-26.398 4.8008-69.602 7.1992-80.398-2.3984-1.1992 0-1.1992-1.1992-1.1992-1.1992 6-6 34.801-10.801 61.199-10.801 9.6016 0 18-7.1992 18-18 0-10.801-7.1992-18-16.801-18-21.602-1.1992-56.398-9.6016-63.602-19.199-1.1992-1.1992-1.1992-2.3984 0-4.8008 0-1.1992 0-1.1992 1.1992-1.1992 19.199-7.1992 84 18 133.2 45.602 7.1992 3.6016 15.602 2.3984 21.602-3.6016s7.1992-14.398 2.3984-21.602c-46.801-78-55.199-126-50.398-134.4 33.602-26.398 150 2.3984 214.8 26.398h1.1992c1.1992 0 2.3984 0 4.8008 1.1992 2.3984 0 3.6016 0 6-1.1992 1.1992 0 1.1992-1.1992 2.3984-1.1992 0 0 1.1992 0 1.1992-1.1992l4.7969-4.7969s0-1.1992 1.1992-1.1992c0 0 0-1.1992 1.1992-1.1992v-1.1992-2.3984-1.1992-1.1992-1.1992-1.1992-2.3984-1.1992c-10.797-34.809 3.6016-124.81 10.805-156.01 1.1992-6-1.1992-13.199-4.8008-16.801-4.8008-4.8008-10.801-6-16.801-3.6016-15.602 4.8008-32.398 12-48 19.199-33.602 14.398-67.199 30-91.199 20.398-13.199-4.8008-24-18-32.398-39.602-8.3984-20.398-2.3984-106.8 4.8008-160.8 0-3.6016 0-8.3984-2.3984-10.801l-12-21.602h1.1992c8.3984 3.6016 18 1.1992 22.801-6l15.602-24 3.6016 24c1.1992 9.6016 10.801 16.801 20.398 14.398l24-3.6016-30 33.602c-1.1992 1.1992-2.3984 3.6016-3.6016 4.8008-6 15.602-36 92.398-21.602 132 3.6016 9.6016 9.6016 15.602 19.199 20.398 36 14.398 118.8-25.199 144-38.398 7.1992-3.6016 10.801-10.801 9.6016-19.199-8.3984-52.801-13.199-116.4-7.1992-129.6 20.398-39.602 86.398-115.2 123.6-117.6 38.398 2.3984 103.2 78 123.6 117.6 6 12 1.1992 76.801-7.1992 129.6-1.1992 7.1992 2.3984 15.602 9.6016 19.199 7.1992 3.6016 15.602 2.3984 20.398-3.6016 9.6016-9.6016 94.801-97.199 108-135.6 13.199-39.602-7.1992-121.2-9.6016-130.8-1.1992-2.3984-2.3984-4.8008-3.6016-7.1992l-30-33.602 24 3.6016c9.6016 1.1992 19.199-4.8008 20.398-14.398l3.6016-24 15.602 24c4.8008 8.3984 14.398 10.801 22.801 6h1.1992l-12 21.602c-1.1992 3.6016-2.3984 7.1992-2.3984 10.801 3.6016 55.199 4.8008 140.4-4.8008 159.6l-2.3984 4.8008c-19.199 36-66 118.8-133.2 160.8-6 3.6016-9.6016 10.801-8.3984 16.801 8.3984 68.398 9.6016 152.4-1.1992 168-3.6016 4.8008-3.6016 12-1.1992 16.801 2.3984 6 7.1992 9.6016 13.199 10.801 30 6 111.6 30 132 74.398 24 51.602 3.6016 93.602-21.602 147.6-4.8008 9.6016-9.6016 19.199-13.199 28.801-6 14.398-3.6016 25.199 1.1992 32.398 13.199 22.801 54 26.398 99.602 30 20.398 1.1992 54 3.6016 66 9.6016-6.0117 0.003906-16.812 2.4023-22.812 2.4023-16.801 3.6016-40.801 7.1992-45.602 30z"/>
  <path d="m718.8 260.4c-27.602-9.6016-57.602 6-66 33.602-3.6016 9.6016 2.3984 19.199 10.801 22.801 9.6016 3.6016 19.199-2.3984 22.801-10.801 2.3984-8.3984 12-13.199 20.398-10.801 8.3984 2.3984 13.199 12 10.801 20.398-3.6016 9.6016 2.3984 19.199 10.801 22.801 2.3984 1.1992 3.6016 1.1992 6 1.1992 7.1992 0 14.398-4.8008 16.801-12 9.5977-27.598-6.0039-57.598-32.402-67.199z"/>
  <path d="m549.6 260.4c-27.602 9.6016-42 38.398-33.602 66 2.3984 7.1992 9.6016 12 16.801 12 2.3984 0 3.6016 0 6-1.1992 9.6016-3.6016 14.398-13.199 10.801-22.801-2.3984-8.3984 1.1992-18 10.801-20.398 8.3984-2.3984 18 1.1992 20.398 10.801 3.6016 9.6016 13.199 14.398 22.801 10.801 9.6016-3.6016 14.398-13.199 10.801-22.801-8.4023-26.402-38.402-40.801-64.801-32.402z"/>
 </g>
</svg>
