<?xml version="1.0" encoding="UTF-8"?>
<svg width="1200pt" height="1200pt" version="1.1" viewBox="0 0 1200 1200" xmlns="http://www.w3.org/2000/svg">
 <g fill="#ff001b" fill-rule="evenodd">
  <path d="m802.5 776.38c20.93-18.852 50.242-24.324 76.645-31.391 28.008-7.5 56.484-15.84 79.703-33.926 30.191-23.508 31.332-68.242 6.7695-95.328-3.4453-3.8047-7.3789-7.2461-11.82-10.246-9.7422-6.5742-21.574-9.2539-31.211-15.949-28.836-20.004-15.324-50.016 0.55078-73.512 16.871-24.961 45.469-47.641 44.664-80.594-1.0938-44.27-49.801-54.059-85.223-49.621-20.641 2.5938-43.332 8.0039-59.93-9.0234-17.41-17.867-6.7578-43.906 1.2969-63.504 4.7773-11.605 12-24.383 14.352-36.758 2.7617-14.52-5.7461-36.383-15-47.148-12.012-13.992-31.094-21.238-49.285-21.238-42.828-0.011719-52.969 37.598-72.602 67.332-19.129 29.004-50.988 52.43-85.812 33.047-19.883-11.051-26.219-33.613-43.262-47.051-9.168-7.2344-23.258-7.7891-34.031-3.5039-29.426 11.688-46.598 38.148-69.816 58.008-18.539 15.863-41.664 31.066-66.574 33.227-41.148 3.5508-42.133-35.855-41.902-66.707 0.17969-24.098-4.0078-51.457-24.539-66.719-16.789-12.48-41.27-14.172-59.629-3.3594-28.922 17.016-38.914 52.895-33.395 84.445 6.1211 34.922 34.727 65.734 28.141 103.4-4.9805 28.43-33.875 47.855-53.879 65.941-27.805 25.141-58.633 53.113-58.344 93.961 0.23828 33.191 21.121 61.066 48.828 77.531 21.77 12.938 51.289 13.715 69.973 32.027 19.5 19.129 6.5508 43.43 2.0391 65.605-6.2539 30.707 8.5664 73.777 46.285 70.344 20.844-1.8828 50.484-21.469 69.938-4.957 15.719 13.332 9.3008 35.652 11.496 53.363 2.4844 20.004 19.391 38.184 41.16 34.066 18.289-3.4688 31.055-21.371 50.316-21.301 48.348 0.20312 68.438 61.105 112.89 73.094 74.09 19.98 115.52-53.914 147.35-106.4 12.285-20.352 26.07-41.148 43.855-57.156z"/>
  <path d="m410.06 240.19c11.555 8.9141 26.965 13.332 41.34 10.668 25.957-4.8242 69.277-36.098 44.375-64.246-16.621-18.781-53.352-26.785-76.668-18.336-11.734 4.2461-24.84 17.699-26.867 30.602-2.6484 16.832 5.3438 31.688 17.82 41.312z"/>
  <path d="m569.38 177.05c4.5117-8.207 3.0234-14.785-1.4766-19.355-8.2578-8.4258-26.688-10.066-36.637-2.6172-28.953 21.699 20.281 54.363 38.113 21.973z"/>
  <path d="m1003.9 550.45c10.934-0.12109 25.055-6 28.414-17.23 4.7539-15.91-8.7227-25.262-23.293-26.496-12.793-1.0781-26.438 4.0781-29.352 16.547-3.3945 14.41 10.477 27.312 24.23 27.18z"/>
  <path d="m1104.8 636.76c-1.9062-3.2148-4.0547-5.9531-6.3711-8.2578-22.848-22.715-63.238-3.0469-76.727 23.688-9.2891 18.406-1.0781 41.016 17.207 50.09 35.816 17.734 87.887-28.523 65.891-65.52z"/>
  <path d="m989.36 766.63c-23.629-1.5977-50.172 5.1953-68.676 9.9961-30.949 8.0391-59.902 20.281-87.133 37.129-12.324 7.6211-63.625 34.871-47.293 55.031 7.668 9.457 11.734 16.645 0.45703 25.465-15.527 12.168-32.688 15.973-40.668 35.902-10.906 27.238 7.0547 47.688 35.16 45.996 20.125-1.1992 35.184-16.273 49.969-28.188 16.598-13.355 34.031-20.914 54.863-25.465 12.238-2.6758 24.77-4.1055 37.176-5.7617 23.496-3.168 51.707-5.7734 71.41-20.258 6.4922-4.7656 12.086-12.648 13.645-20.605 2.4375-12.527-10.98-14.461-13.066-25.355-1.9805-10.332 9.6602-15.949 17.797-18.191 19.141-5.2695 32.629-20.734 21.938-40.309-9.5039-17.445-26.605-24.129-45.578-25.387z"/>
  <path d="m187.5 384.2c9.9102-16.68 4.2734-48.887 3.0234-66.984-2.0508-29.809 3.4453-60.48-12.109-88.008-14.352-25.414-43.379-19.164-63-2.1953-9.5625 8.2812-15.781 19.379-19.621 31.309-7.5938 23.605-7.9766 51.277 0.375 74.699 9.9844 27.973 30.098 52.945 59.93 60.301 16.691 4.1055 26.195-0.35938 31.402-9.1211z"/>
  <path d="m183.41 685.49c-24.227 0-55.883 19.246-49.199 46.512 4.7539 19.344 32.566 18.168 47.004 12.145 12.434-5.1953 24.48-16.008 27.145-29.629 4.0195-20.449-8.8086-29.016-24.949-29.027z"/>
  <path d="m515.88 919.08c-4.1875-1.6562-8.832-1.8125-13.906 0.30078-9.4922 3.9727-17.352 19.715-21.18 28.477-3.8867 8.8906-7.5234 17.723-11.844 26.41-7.9336 15.973-15.875 38.723-10.691 56.711 2.7461 9.5273 11.27 15.828 20.891 17.711 48.504 9.5039 71.594-51.574 62.328-90.086-3.3594-14.035-10.992-33.75-25.598-39.523z"/>
  <path d="m603.83 963.86c-10.559-1.1055-25.992 7.3789-31.766 15.742-8.0156 11.605 0 26.328 14.184 26.23 13.922-0.097657 32.867-15.996 29.508-31.129-1.5469-6.9922-6.1641-10.23-11.926-10.844z"/>
 </g>
</svg>
