<svg xmlns="http://www.w3.org/2000/svg" version="1.1" viewBox="57.6 417.6 1088.47 349.2">
 <g fill="#9b9b9b">
  <path d="m1117.2 547.2h-180v24h178.8c3.6016 0 6 2.3984 6 6v10.801c0 3.6016-2.3984 6-6 6h-178.8v24h178.8c16.801 0 30-13.199 30-30v-9.6016c1.1992-16.797-12-31.199-28.801-31.199z"/>
  <path d="m964.8 734.4h-43.199v-283.2h43.199c8.3984 0 16.801-7.1992 16.801-16.801 0-8.3984-7.1992-16.801-16.801-16.801h-58.801l-6 0.003906h-1.1992-1.1992-2.3984c-6 1.1992-9.6016 6-10.801 10.801v2.3984 1.1992 136.8h-183.6v-45.602h8.3984c12 0 20.398-9.6016 20.398-20.398v-45.602c0-12-9.6016-20.398-20.398-20.398h-42c-12 0-20.398 9.6016-20.398 20.398v46.801c0 12 9.6016 20.398 20.398 20.398h8.3984v45.602h-109.2-2.3984c3.6016 7.1992 6 15.602 6 24 0 3.6016-1.1992 8.3984-1.1992 12h70.801v56.398h-8.3984c-12 0-20.398 9.6016-20.398 20.398v45.602c0 12 9.6016 20.398 20.398 20.398h42c12 0 20.398-9.6016 20.398-20.398v-44.398c0-12-9.6016-20.398-20.398-20.398h-8.3984v-56.398h219.6v145.2 1.1992 2.3984c1.1992 6 6 9.6016 10.801 10.801h2.3984 1.1992 67.195c8.3984 0 16.801-7.1992 16.801-16.801-1.1992-8.3984-8.4023-15.602-18-15.602zm-294-273.6h36v39.602h-36zm-1.1992 265.2h-36v-39.602h36z"/>
  <path d="m524.4 554.4-100.8-56.398c-18-12-38.398-18-60-18-61.199 0-110.4 49.199-110.4 110.4 0 61.199 49.199 110.4 110.4 110.4 21.602 0 42-6 60-18l100.8-57.602c14.398-6 24-20.398 24-36 0-14.395-9.5977-28.797-24-34.797z"/>
  <path d="m87.602 577.2h141.6c1.1992-8.3984 2.3984-16.801 4.8008-24h-146.4c-16.801 0-30 13.199-30 30v9.6016c0 16.801 13.199 30 30 30h145.2c-2.3984-7.1992-3.6016-15.602-4.8008-24h-140.4c-3.6016 0-6-2.3984-6-6v-9.6016c0-2.3984 2.3984-6 6-6z"/>
 </g>
</svg>