<?xml version="1.0" encoding="UTF-8"?>
<svg width="1200pt" height="1200pt" version="1.1" viewBox="0 0 1200 1200" xmlns="http://www.w3.org/2000/svg">
 <path d="m953.81 612.1c-0.007813 0.17578-0.007813 0.34766-0.015625 0.52344-0.007813 0.22656-0.03125 0.45312-0.042969 0.67969-0.027344 0.52734-0.042969 1.0586-0.074219 1.5859-0.03125 0.47266-0.070312 0.94531-0.10547 1.418-0.015624 0.19141-0.027343 0.37891-0.042968 0.57031-0.09375 1.1562-0.21094 2.3125-0.33594 3.4688-0.039062 0.33984-0.078125 0.67578-0.11719 1.0156-0.09375 0.79688-0.19531 1.5898-0.30078 2.3828-0.11328 0.83984-0.23047 1.6797-0.35156 2.5195-0.070313 0.48828-0.14062 0.97266-0.21484 1.4609-0.046875 0.3125-0.089843 0.62891-0.14062 0.94141-0.035156 0.21484-0.074218 0.42578-0.10547 0.64063-0.28906 1.832-0.58984 3.6602-0.89063 5.4883-1.0586 6.4375-2.2812 12.863-3.5352 19.266-0.09375 0.48438-0.19531 0.96484-0.29297 1.4453-0.17969 0.90625-0.36328 1.8125-0.55078 2.7188-0.17578 0.84375-0.35938 1.6836-0.54297 2.5273-0.097657 0.44922-0.19141 0.90234-0.29297 1.3555-0.042969 0.1875-0.085938 0.37109-0.12891 0.55859-0.17969 0.80078-0.36719 1.5977-0.55469 2.3945-0.17578 0.75-0.35938 1.5-0.54297 2.25-0.17969 0.72266-0.35938 1.4453-0.54688 2.1641-0.18359 0.71484-0.37891 1.4258-0.57422 2.1367-0.16406 0.60547-0.31641 1.2109-0.48828 1.8164-0.0625 0.21484-0.13281 0.42969-0.19531 0.64453-0.17578 0.60547-0.36719 1.2031-0.55078 1.8047-0.23828 0.78125-0.46875 1.5586-0.72266 2.3359-0.011719 0.039062-0.023437 0.078124-0.035156 0.11719-0.44922 1.375-0.92969 2.7422-1.4336 4.0977-0.066406 0.17969-0.14062 0.35547-0.20703 0.53906-0.44141 1.1797-0.90234 2.3555-1.3828 3.5195-0.23438 0.57031-0.48438 1.1406-0.72656 1.707-0.33984 0.79688-0.68359 1.5898-1.0391 2.3789-0.10937 0.23828-0.20703 0.48047-0.31641 0.71875-0.16797 0.36328-0.34766 0.72266-0.51953 1.0859-0.17969 0.38672-0.35156 0.77734-0.53516 1.1602-0.18359 0.38672-0.38281 0.76562-0.57031 1.1523-0.33203 0.67578-0.66016 1.3555-1 2.0273-0.26953 0.53125-0.54297 1.0625-0.81641 1.5938-1.5664 3.043-3.2148 6.043-4.9336 9-0.19141 0.33203-0.37891 0.67188-0.57422 1.0039-0.046876 0.078125-0.09375 0.15625-0.13672 0.23438-0.058594 0.097656-0.11328 0.19531-0.16797 0.29297-0.58984 1-1.1875 2-1.7891 3.0039-0.023438 0.039062-0.046876 0.078125-0.070313 0.11719-2.7461 4.582-5.6328 9.1445-9.0469 13.227-1.0938 1.3086-2.2773 2.5-3.5234 3.6055-1.5859 1.4453-3.293 2.7617-5.1641 3.9102-1.7695 1.0859-3.6133 2.043-5.4922 2.9297-0.066406 0.03125-0.12891 0.0625-0.19141 0.09375-0.089844 0.042969-0.17969 0.082032-0.27344 0.12109-1.1797 0.54297-2.3672 1.0664-3.5742 1.5547-4.1797 1.7188-8.4883 3.1445-12.84 4.3555-0.28906 0.082032-0.57812 0.15625-0.87109 0.23438-0.36719 0.10156-0.73437 0.20312-1.1055 0.30078-1.9023 0.5-3.8164 0.92969-5.7422 1.3047-0.22656 0.042969-0.44922 0.10156-0.67578 0.14453-0.16016 0.03125-0.32422 0.050781-0.48828 0.082031-0.99609 0.18359-1.9961 0.35156-2.9961 0.50391-0.44141 0.066406-0.88281 0.12891-1.3242 0.19141-1.0859 0.14844-2.1758 0.29297-3.2656 0.41016-0.10547 0.011718-0.21094 0.019531-0.3125 0.03125-1.4766 0.15625-2.9531 0.28516-4.4375 0.38672-5.6133 0.375-11.258 0.41016-16.879 0.35156-4.0508-0.039063-8.1055-0.10156-12.156-0.15234-4.7969-0.058594-9.5938-0.12109-14.391-0.17969-0.64062-0.007813-1.2812-0.015626-1.9219-0.023438-8.1367-0.09375-16.27-0.1875-24.406-0.28125-8.4219-0.097656-16.84-0.19141-25.262-0.28906-7.418-0.085938-14.84-0.17188-22.258-0.25391-5.1445-0.058593-10.289-0.11719-15.434-0.17578-0.67188-0.007812-1.3398-0.015625-2.0117-0.027344-1.668 0.011719-3.332 0.023438-5 0.03125-4.5938 0.015625-9.1914 0.035156-13.785 0.050782-0.71875 0.003906-1.4414 0.003906-2.1602 0.007812-0.027344 0-0.0625-0.003906-0.089844-0.003906-0.34766 0.003906-0.69922 0.003906-1.0469 0.007812-0.003906 0-0.007813 0-0.011719 0.003906-0.33594 0.125-0.51172 0.69531-0.70703 1.0352-0.42578 0.73828-0.86328 1.4648-1.3164 2.1875-0.20312 0.32031-0.41797 0.63281-0.625 0.94922-0.30859 0.48437-0.625 0.96875-0.95312 1.4453-0.13281 0.19141-0.26562 0.37891-0.39844 0.57031-0.20703 0.29688-0.41406 0.58984-0.62891 0.88281-0.054688 0.074219-0.11328 0.14844-0.16797 0.22656-1.8164 2.457-3.9023 4.9297-6.3906 6.7812-0.13672 0.10156-0.26953 0.20312-0.41016 0.30078-0.15625 0.11328-0.31641 0.22266-0.48047 0.33203-0.34375 0.22656-0.69141 0.44141-1.0508 0.64062-0.019531 0.011719-0.039062 0.023437-0.058594 0.035156-0.066406 0.035157-0.13672 0.0625-0.20312 0.097657-0.25 0.13281-0.49609 0.26562-0.75391 0.38281-0.09375 0.042969-0.19141 0.074219-0.28516 0.11328-0.09375 0.039063-0.1875 0.074219-0.28125 0.11328-0.30469 0.12109-0.62109 0.23047-0.9375 0.33594-0.19141 0.058594-0.37891 0.125-0.57031 0.17969-0.046875 0.011718-0.097656 0.023437-0.14453 0.035156-2.4102 0.67188-5.0547 0.84375-7.4688 0.51562-1.0508-0.078125-2.4492-0.28516-3.0312-1.0234-0.066406-0.078125-0.125-0.16406-0.16797-0.25781 0-0.003907-0.003906-0.007813-0.003906-0.007813-0.039062-0.089844-0.070312-0.1875-0.089844-0.29297v-0.015626-0.003906-0.039062c-0.011718-0.089844-0.011718-0.18359-0.011718-0.27734 0-1.0586 0.69922-2.2695 1.0742-3.1641 1.6445-3.9453 3.2734-7.8867 4.8789-11.848-5.0078 0.042969-10.016 0.085938-15.023 0.125-8.8789 0.074219-17.754 0.14844-26.633 0.22656-3.8242 0.03125-7.6523 0.10547-11.48 0.089844-0.57812-0.003907-1.1562-0.003907-1.7383-0.007813-2.1836-0.003906-4.3633-0.015625-6.5469-0.023437-6.2227-0.019532-12.441-0.035157-18.664-0.054688-6.1445-0.015625-12.285-0.035156-18.43-0.054688-2.6016-0.007812-5.2031 0.003907-7.8047-0.023437-0.92969-0.007813-1.8633-0.027344-2.793-0.042969-0.79297-0.003906-1.5859-0.003906-2.3828-0.011718-3.7188-0.039063-7.4336-0.12109-11.152-0.18359-8.4297-0.13672-16.859-0.27344-25.289-0.41016-8.6562-0.14063-17.316-0.28125-25.973-0.42188-4.3398-0.070312-8.6836-0.15625-13.027-0.21094-5.4336-0.039063-10.863-0.082031-16.297-0.12109-3.9102-0.027343-7.8164-0.019531-11.723 0.003907-3.5273 0.023437-7.0469 0.078124-10.574 0.13672-3.9023 0.082032-7.8047 0.16797-11.711 0.31641-8.5 0.32422-17 0.64453-25.5 0.96875-4.7031 0.17969-9.4023 0.35547-14.105 0.50781-3.4258 0.10938-6.8477 0.21484-10.273 0.30859h-0.039063c-2.9375 0.10547-5.875 0.15625-8.8125 0.21094h-0.12891c-0.36328 0.007813-0.72266 0.019532-1.0859 0.027344-5.9023 0.10938-11.805 0.16406-17.707 0.125-2.2188-0.015625-4.4375-0.046875-6.6562-0.085938-0.53125-0.007812-1.0664-0.011718-1.5977-0.019531-0.33594-0.003906-0.67578-0.019531-1.0117-0.027343-0.53906-0.011719-1.0742-0.03125-1.6133-0.042969-1.7461-0.046875-3.4922-0.10547-5.2383-0.17578-0.95703-0.039063-1.918-0.070313-2.875-0.11719-0.67188-0.03125-1.3438-0.082031-2.0156-0.12109-0.0625-0.003906-0.125-0.003906-0.1875-0.007812-0.09375-0.003906-0.19141-0.015625-0.28516-0.019532-1.1328-0.070312-2.2656-0.14453-3.3945-0.23047-1.2891-0.097656-2.5742-0.21094-3.8594-0.33594-1.0625-0.10547-2.1289-0.21484-3.1914-0.33984-0.30859-0.035156-0.61719-0.074218-0.92578-0.11328-0.41797-0.050781-0.83594-0.097656-1.25-0.15234-0.33984-0.046876-0.67969-0.10156-1.0195-0.14844-0.54688-0.074219-1.0938-0.13672-1.6406-0.21484-0.12109-0.015625-0.24219-0.039062-0.36328-0.058594-0.003906 0-0.007812-0.003906-0.011719-0.003906-3.1328-0.46484-6.2344-1.0898-9.332-1.7344-0.20703-0.042969-0.41016-0.082031-0.61719-0.125-2.6953-0.55078-5.3867-1.0938-8.0898-1.5898-0.66797-0.11328-1.3359-0.22266-2.0039-0.32031-1.9062-0.21875-3.7969-0.52344-5.6758-0.91016-0.71484-0.10547-1.4297-0.21094-2.1484-0.3125-4.3789-0.57812-8.7734-1.0664-13.145-1.6953-0.82422-0.10547-1.6445-0.22656-2.4648-0.36328-0.039062-0.007813-0.082031-0.011719-0.12109-0.019531-0.046875-0.007813-0.097656-0.019532-0.14453-0.027344-1.5547-0.26172-3.0938-0.58594-4.5977-1.0508-1.9375-0.59766-3.8203-1.3945-5.6406-2.3125-0.10938-0.054688-0.22266-0.11328-0.33203-0.16797-0.4375-0.22656-0.87109-0.45312-1.3008-0.69141-0.58984-0.32812-1.1719-0.66797-1.75-1.0273-0.050781-0.03125-0.10547-0.058594-0.15625-0.09375-0.019531-0.011719-0.039062-0.027344-0.058593-0.039062-0.46094-0.29297-0.92188-0.59375-1.3711-0.90234-0.058594-0.039063-0.10938-0.082032-0.16797-0.12109-0.039063-0.027344-0.074219-0.054688-0.11328-0.082031-3.0664-2.1562-5.75-4.7617-7.9219-7.8242-0.070313-0.10156-0.13672-0.20703-0.20703-0.30859-0.015626-0.023437-0.03125-0.046875-0.046876-0.070312-0.32031-0.45703-0.625-0.92578-0.92187-1.4023-0.039063-0.0625-0.082032-0.12109-0.12109-0.1875-0.054688-0.085938-0.10156-0.17578-0.15234-0.26172-0.27344-0.45312-0.54297-0.91016-0.80078-1.375-0.066407-0.12109-0.13281-0.23828-0.19922-0.35547-0.31641-0.58203-0.62109-1.168-0.91406-1.7617-0.003907-0.007813-0.007813-0.015625-0.011719-0.023438-0.27344-0.55469-0.53125-1.1211-0.78516-1.6836-0.13672-0.30469-0.26953-0.61328-0.39844-0.92187-0.10547-0.24609-0.20703-0.49219-0.30859-0.74219-0.15234-0.375-0.30469-0.75-0.45312-1.1289-0.054687-0.14453-0.10938-0.28906-0.16406-0.43359-0.15625-0.41406-0.3125-0.82812-0.46094-1.2422-0.050781-0.14062-0.09375-0.28516-0.14453-0.42578-0.28516-0.80859-0.5625-1.6211-0.82031-2.4375-0.046874-0.15234-0.097656-0.30469-0.14453-0.45312-0.27344-0.87891-0.53906-1.7578-0.78906-2.6406-0.007813-0.023437-0.011719-0.046875-0.019531-0.074219-0.31641-1.1094-0.61719-2.2266-0.91406-3.3398-1.1641-4.3789-2.1953-8.793-3.1211-13.227-0.125-0.58984-0.23047-1.1836-0.35156-1.7734-0.10156-0.5-0.20703-0.99609-0.30859-1.4961-0.1875-0.92969-0.36719-1.8633-0.54297-2.7969-0.054687-0.28906-0.10938-0.58203-0.16406-0.87109-0.42969-2.3203-0.83203-4.6484-1.2031-6.9805h-0.003907 0.003907c-0.074219-0.46875-0.14453-0.9375-0.21484-1.4062-0.054687-0.34375-0.10938-0.6875-0.16406-1.0352-0.011718-0.089843-0.023437-0.17578-0.035156-0.26562-0.03125-0.20703-0.066406-0.41406-0.09375-0.62109-0.15625-1.0781-0.29297-2.1523-0.43359-3.2305-0.39062-2.9297-0.75-5.8594-1.0469-8.8008-0.18359-1.8359-0.34375-3.6758-0.49609-5.5156-0.007813-0.10156-0.019532-0.20313-0.03125-0.30469-0.058594-0.6875-0.10938-1.3789-0.16406-2.0664-0.12109-1.5664-0.23828-3.1289-0.34375-4.6953-0.015625-0.21094-0.03125-0.42188-0.046875-0.63672-0.007812-0.097656-0.011718-0.19922-0.015625-0.29687-0.14062-2.1641-0.25391-4.332-0.36328-6.4961-0.023438-0.49219-0.050781-0.98828-0.070312-1.4805-0.015626-0.30078-0.03125-0.60156-0.042969-0.90234-0.011719-0.25-0.019531-0.5-0.03125-0.75-0.070313-1.5195-0.14062-3.0391-0.20703-4.5586-0.17578-3.9062-0.29688-7.8164-0.39453-11.727-0.003906-0.15234-0.007812-0.30469-0.011718-0.45703v-0.023438c-0.003907-0.082031-0.003907-0.16797-0.003907-0.25-0.11719-4.6367-0.23828-9.2773-0.25-13.914-0.011719-4.4922 0.125-8.9844 0.23438-13.473 0-0.042969 0.003906-0.085938 0.003906-0.125v-0.0625c0.097657-3.9531 0.19922-7.9102 0.375-11.863 0.039063-0.90234 0.085938-1.8047 0.125-2.7109 0.16797-3.9414 0.36328-7.8828 0.59375-11.816 0-0.019531 0.003907-0.042968 0.003907-0.0625 0.003906-0.097656 0.011719-0.19922 0.015625-0.29687 0.015625-0.28516 0.042968-0.57031 0.058594-0.85938 0.09375-1.5156 0.19922-3.0312 0.31641-4.5469 0.039062-0.51953 0.078125-1.0391 0.12109-1.5586 0.14844-1.8359 0.30859-3.668 0.48437-5.5 0.003907-0.023438 0.003907-0.050782 0.007813-0.074219 0.007813-0.089844 0.019531-0.17969 0.027344-0.26953 0.125-1.2617 0.25391-2.5234 0.39453-3.7852 0.0625-0.57422 0.13672-1.1445 0.20312-1.7188 0.0625-0.53125 0.12109-1.0625 0.1875-1.5898 0.24609-1.9961 0.50781-3.9883 0.80078-5.9805 0.007813-0.046875 0.011719-0.09375 0.019532-0.14062 0.089843-0.60938 0.18359-1.2148 0.27734-1.8242 0.070313-0.45703 0.14062-0.91016 0.21094-1.3633 0.023437-0.16016 0.050781-0.32031 0.074219-0.47656 0.48047-3.0195 1.0078-6.0312 1.6055-9.0273 0.87891-4.4062 1.793-8.8125 2.8828-13.176 0.03125-0.12109 0.058593-0.23828 0.089843-0.35937 1-4.1133 2.0703-8.2227 3.4414-12.23 0.035156-0.10938 0.066406-0.21875 0.10547-0.32422 0.042968-0.125 0.089843-0.25 0.13672-0.37891 0.058594-0.16797 0.12109-0.33984 0.17969-0.50781 0.20312-0.56641 0.41406-1.1328 0.63281-1.6953 0.011719-0.027344 0.019532-0.054688 0.03125-0.082031 0.003906-0.011719 0.007813-0.023438 0.011719-0.03125 0.73438-1.8828 1.5547-3.7344 2.4922-5.5273 0.019532-0.035156 0.039063-0.070313 0.058594-0.10547 0.29297-0.55859 0.59766-1.1094 0.91406-1.6523 0.023437-0.042969 0.050781-0.085937 0.074219-0.12891 0.37109-0.62891 0.75-1.25 1.1562-1.8594 0.32422-0.48828 0.66406-0.96094 1.0117-1.4258 0.078125-0.10156 0.15625-0.20312 0.23438-0.30469 0.24609-0.32812 0.50391-0.64453 0.76562-0.96484 0.20312-0.24609 0.40625-0.49219 0.61719-0.73438 0.054687-0.0625 0.11328-0.125 0.17188-0.1875 0.30469-0.34375 0.60547-0.69141 0.92578-1.0234 0.63672-0.65625 1.3125-1.2734 2.0039-1.875 0.011719-0.011719 0.023438-0.019531 0.035156-0.03125 0.44141-0.38281 0.89844-0.75 1.3594-1.1094 0.1875-0.14453 0.375-0.28516 0.5625-0.42578 0.11328-0.085938 0.22266-0.17188 0.33594-0.25391 0.070313-0.050781 0.14844-0.097656 0.22266-0.14844 0.60938-0.4375 1.2266-0.85938 1.8633-1.2617 0.03125-0.019531 0.066407-0.042968 0.097657-0.0625 0.72266-0.45312 1.4531-0.89453 2.207-1.3008 0.23438-0.12891 0.46484-0.26172 0.70312-0.38281 0.054687-0.027343 0.10938-0.054687 0.16406-0.082031 1.6914-0.87891 3.4414-1.6367 5.2383-2.2461 2.4062-0.82031 4.8906-1.2656 7.3945-1.6133 1.7305-0.25391 3.4727-0.45703 5.2148-0.66016 3.6406-0.45703 7.2734-0.94531 10.902-1.4766 0.007812-0.003907 0.019531-0.003907 0.027343-0.003907 0.98828-0.18359 1.9766-0.38281 2.9727-0.54297 0.074218-0.011718 0.14844-0.027343 0.22266-0.039062 0.21484-0.035156 0.43359-0.058594 0.64844-0.085938 0.40234-0.054687 0.80469-0.11328 1.207-0.16406 0.59766-0.074219 1.1914-0.16797 1.7852-0.25781 2.4609-0.43359 4.9141-0.90625 7.3633-1.4102 1.4766-0.30469 2.9531-0.60156 4.4297-0.89453 1.1992-0.23828 2.4023-0.46484 3.6055-0.68359 0.6875-0.125 1.3711-0.25 2.0625-0.36328 0.16797-0.027344 0.33594-0.0625 0.50391-0.089844 0.26563-0.042969 0.53516-0.074219 0.80078-0.11328 0.027344-0.007812 0.058594-0.019531 0.085937-0.027344v0.015625c0.11328-0.015625 0.22656-0.03125 0.33984-0.046875 0.46875-0.070312 0.9375-0.15234 1.4062-0.21484 0.28906-0.039062 0.57812-0.070312 0.86719-0.10937 0.56641-0.074219 1.1328-0.14844 1.6992-0.21484 0.63281-0.078125 1.2695-0.14844 1.9062-0.21875 0.625-0.070313 1.2461-0.14062 1.8711-0.20312 1.207-0.12109 2.418-0.23047 3.6289-0.32812 0.19531-0.015625 0.39453-0.027344 0.58984-0.042969 0.8125-0.0625 1.625-0.125 2.4375-0.17969 0.25391-0.015626 0.50391-0.023438 0.75781-0.039063 0.20312-0.011719 0.41016-0.03125 0.61328-0.042969 1.543-0.089844 3.0898-0.16406 4.6328-0.23047 0.81641-0.035157 1.6289-0.0625 2.4453-0.089844 1.1602-0.039063 2.3242-0.078125 3.4883-0.10938 0.49219-0.011719 0.98438-0.035157 1.4766-0.046875 0.32422-0.007813 0.65234-0.007813 0.97656-0.015625 0.38281-0.007813 0.76562-0.011719 1.1484-0.019531 1.125-0.019532 2.2539-0.039063 3.3789-0.050782h0.40625c2.1719-0.027344 4.3438-0.042968 6.5195-0.03125h0.12891c2.2617 0.011719 4.5273 0.023438 6.7891 0.042969 1.1562 0.007813 2.3125 0.003906 3.4688 0.019531 1.0039 0.011719 2.0078 0.039063 3.0117 0.054688 0.17578 0.003906 0.35156 0.003906 0.52734 0.007812 3.2383 0.058594 6.4727 0.097656 9.7109 0.21484 0.42188 0.015625 0.83984 0.03125 1.2617 0.046875 0.88672 0.027344 1.7734 0.046875 2.6562 0.074219 4.9805 0.16016 9.9609 0.30469 14.945 0.49609 7.8906 0.30078 15.777 0.59766 23.668 0.89844 1.6719 0.0625 3.3438 0.13281 5.0156 0.20312 0.93359 0.035156 1.8633 0.066406 2.7969 0.10156 2.3281 0.082032 4.6562 0.17578 6.9883 0.22266 0.16406 0.003906 0.32422 0.007812 0.48828 0.007812 5.6289 0.10938 11.254 0.17969 16.883 0.22656 2.8516 0.015625 5.7031 0.027344 8.5547 0.007812 4.5625-0.035156 9.1211-0.066406 13.68-0.10156 2.3984-0.019532 4.7969-0.039063 7.1953-0.078125 0.23047-0.003907 0.46094-0.007813 0.69141-0.011719 6.1445-0.097656 12.289-0.19531 18.438-0.29297 3.2461-0.050781 6.4922-0.10547 9.7383-0.15625 1.7344-0.027343 3.4688-0.054687 5.2031-0.082031 6.5977-0.10547 13.199-0.21094 19.797-0.31641 5.0352-0.082032 10.07-0.16016 15.102-0.24219 1.0469-0.019531 2.0938-0.035156 3.1406-0.054687 0.019531-0.003907 0.035157-0.011719 0.054688-0.019531l-0.007813 0.015624c1.3633-0.023437 2.7305-0.042968 4.0938-0.058593 0.33594-0.003907 0.66797-0.011719 1.0039-0.015625 1.4531-0.015625 2.9062-0.019532 4.3594-0.019532 3-0.011718 6-0.015624 9.0039-0.023437 3.793-0.011719 7.5859-0.023437 11.379-0.035156 5.5078-0.015625 11.02-0.03125 16.527-0.046875 0.82812-0.003906 1.6523-0.003906 2.4805-0.007813 3.0703-0.007812 6.1445-0.027343 9.2188-0.027343 0.21484 0 0.42969-0.003907 0.64844 0 1.4414 0.003906 2.8828 0.015624 4.3242 0.03125 3.0391 0.023437 6.0781 0.054687 9.1172 0.082031 4.0312 0.035156 8.0586 0.066406 12.09 0.10156 6.2305 0.050781 12.457 0.10547 18.688 0.15625 2.8555 0.023438 5.7109 0.046875 8.5703 0.074219-1.4648-3.6172-2.9531-7.2266-4.457-10.832-0.16016-0.37891-0.31641-0.75781-0.47656-1.1367-0.38672-0.89062-1.0312-2.0547-1.0195-3.0781 0-0.042969 0.003906-0.085937 0.007812-0.13281 0.003906-0.050781 0-0.10156 0.007812-0.15234 0.007813-0.046875 0.027344-0.085938 0.039063-0.12891 0.007813-0.03125 0.003906-0.066406 0.015625-0.10156 0.007812-0.023438 0.023438-0.046875 0.035156-0.070312 0.003906-0.011719 0.011719-0.023438 0.019532-0.039063 0.046874-0.09375 0.10547-0.17578 0.17187-0.25391 0.625-0.78516 2.1562-0.99219 3.3516-1.0508 2.5898-0.30078 5.4141-0.035157 7.9141 0.79297 0.17578 0.058594 0.34766 0.12109 0.51562 0.18359 0.20703 0.074219 0.41016 0.14453 0.61328 0.22656 0.36719 0.15234 0.73047 0.32031 1.082 0.50781 0.039063 0.019531 0.074219 0.042969 0.10938 0.0625 0.027344 0.015625 0.054688 0.023437 0.082031 0.039063 0.066407 0.035156 0.125 0.078124 0.19141 0.11719 0.35937 0.20312 0.71875 0.41797 1.0625 0.64844 0.011718 0.007813 0.023437 0.015626 0.03125 0.019532 0.41016 0.27344 0.80469 0.57031 1.1914 0.87891 3.8086 2.957 6.7461 7.3164 9.1719 11.285 0.41406 0.67578 0.8125 1.3594 1.1992 2.0508 0.23437 0.41797 0.1875 0.36719 0.58984 0.38672 1.0508 0.007813 2.1016 0.011719 3.1484 0.019532 0.24219-0.003907 0.48828-0.003907 0.73047-0.003907 4.6992 0.015625 9.3984 0.035157 14.098 0.050781 1.2773 0.003907 2.5547 0.011719 3.8359 0.019532 0.55469-0.007813 1.1094-0.011719 1.668-0.019532 5.0195-0.058593 10.035-0.11328 15.055-0.17187 7.3555-0.085938 14.707-0.16797 22.062-0.25391 8.4062-0.097656 16.809-0.19141 25.215-0.28906 8.1953-0.09375 16.391-0.1875 24.586-0.28125 1.7656-0.019531 3.5312-0.039063 5.2969-0.0625 4.1953-0.050781 8.3906-0.10547 12.59-0.15625 3.8359-0.046875 7.6719-0.10938 11.504-0.14453 1.6836-0.015626 3.3672-0.015626 5.0547-0.007813 0 0-0.003906 0-0.003906-0.003906l0.003906 0.003906c0.29688 0 0.59375 0.007813 0.89062 0.011719 0.76953 0.007812 1.5352 0.011718 2.3047 0.027344 0.66797 0.011718 1.3359 0.03125 2 0.050781 0.69141 0.019531 1.3828 0.027343 2.0742 0.050781 0.39063 0.015625 0.77734 0.042969 1.168 0.0625 1.2109 0.050781 2.418 0.11328 3.625 0.19141 0.22656 0.015625 0.45703 0.023438 0.68359 0.039063 2.0234 0.14062 4.043 0.35156 6.0508 0.61719 0.39453 0.050782 0.78906 0.097656 1.1836 0.15625 0.039062 0.003906 0.082031 0.011719 0.12109 0.019532 0.89062 0.12891 1.7773 0.27344 2.6602 0.42578 0.34375 0.058593 0.6875 0.10156 1.0312 0.16406 0.25781 0.046875 0.50781 0.10938 0.76562 0.15625 0.96484 0.18359 1.9297 0.38281 2.8906 0.59375 0.37891 0.085938 0.75781 0.17578 1.1367 0.26562 1.1289 0.26172 2.2539 0.53906 3.375 0.83984 4.6016 1.2383 9.1758 2.7227 13.602 4.5312 0.066407 0.027344 0.13672 0.054688 0.20703 0.082031 0.03125 0.011719 0.066407 0.027344 0.097657 0.039063 3.0625 1.2422 6.0586 2.6523 8.8945 4.3359 2.3359 1.3867 4.4375 3.0156 6.3594 4.8438 0.28906 0.27734 0.57812 0.55469 0.85938 0.83984 0.09375 0.09375 0.1875 0.1875 0.28125 0.28516 0.76172 0.77734 1.5039 1.582 2.1992 2.4453 4.082 5.0469 7.4883 10.715 10.754 16.309 0.15625 0.26953 0.30859 0.54297 0.46484 0.8125 0.625 1.0781 1.2461 2.1602 1.8516 3.2461 0.15625 0.28125 0.3125 0.56641 0.46875 0.85156 0.52734 0.95703 1.0469 1.918 1.5625 2.8789 0.35156 0.66016 0.69531 1.3203 1.0391 1.9844 0.30859 0.59766 0.61328 1.1992 0.91406 1.7969 0.375 0.74219 0.74609 1.4844 1.1094 2.2305 0.078125 0.16406 0.16406 0.32422 0.24219 0.48828 0.34766 0.71875 0.67969 1.4492 1.0156 2.1758 0.17578 0.37891 0.36328 0.75391 0.53516 1.1328 0.023438 0.054687 0.046875 0.11328 0.074219 0.16797 0.49219 1.0898 0.96484 2.1875 1.4258 3.2891 0.003906 0.007813 0.007812 0.019531 0.011719 0.027344 1.1484 2.7422 2.207 5.5234 3.1484 8.3438 0.19141 0.57812 0.36328 1.1641 0.54688 1.7422 0.03125 0.097656 0.0625 0.19531 0.09375 0.29297 0.37109 1.1719 0.71875 2.3516 1.0586 3.5312 0.074219 0.33594 0.17969 0.65625 0.26953 0.98047 0.12891 0.46094 0.24219 0.92578 0.36719 1.3867 0.050781 0.19141 0.10156 0.38672 0.15234 0.57813 1.2344 4.6133 2.2852 9.2812 3.2188 13.965 0.17187 0.85156 0.34375 1.7031 0.50781 2.5586 0.054688 0.27734 0.10547 0.55859 0.15625 0.83594 0.45312 2.332 0.89844 4.668 1.3359 7 0.066406 0.34766 0.125 0.69922 0.19141 1.0508 0.19141 1.0312 0.37891 2.0664 0.56641 3.0977h0.003906c0.21875 1.1953 0.43359 2.3906 0.64453 3.5859 0.097656 0.5625 0.19141 1.125 0.28906 1.6875 0.16797 0.98047 0.33984 1.9609 0.50391 2.9453 0.16406 0.99219 0.32422 1.9883 0.48438 2.9844 0.058594 0.37109 0.125 0.74219 0.18359 1.1133 0.066406 0.42578 0.12109 0.85547 0.1875 1.2812 0.20312 1.3398 0.40234 2.6836 0.58594 4.0273 0.058594 0.42188 0.10938 0.84375 0.16406 1.2656 0.11719 0.91016 0.22656 1.8203 0.32422 2.7305 0.074218 0.6875 0.14844 1.3711 0.21484 2.0586 0.046874 0.48437 0.089843 0.97266 0.13281 1.457 0.082031 0.96484 0.15234 1.9336 0.20703 2.9023 0.007813 0.10938 0.007813 0.22266 0.015625 0.33594 0.003906 0.10938 0.015625 0.21484 0.023438 0.32422 0.023437 0.46484 0.03125 0.93359 0.050781 1.4023 0.20703 4.8945 0.20703 9.8398-0.019531 14.746zm-176.43-57.5c-0.03125-0.11719-0.0625-0.23438-0.09375-0.35547-0.26953-1.0234-0.55469-2.0391-0.84766-3.0547-0.027344-0.089844-0.050781-0.17969-0.078125-0.26953-0.63281-2.1797-1.3086-4.3477-2.0156-6.5039-1.1367-3.457-2.3633-6.875-3.6367-10.281-0.23047-0.60547-0.46484-1.2109-0.69531-1.8164-0.30469-0.80078-0.61328-1.5977-0.92969-2.3906-0.28906-0.73047-0.58203-1.4609-0.87891-2.1914-0.80469-1.9844-1.6406-3.9609-2.5039-5.9219-0.10156-0.23438-0.20703-0.46875-0.30859-0.70312-0.25391-0.57422-0.51172-1.1484-0.77344-1.7188-0.23438-0.51953-0.47656-1.0391-0.71484-1.5547-0.1875-0.40234-0.375-0.80469-0.5625-1.207-0.33984-0.71484-0.68359-1.4219-1.0312-2.1328-0.13672-0.28125-0.27344-0.5625-0.41016-0.83984-0.44531-0.89453-0.90625-1.7852-1.3711-2.6719-0.22656-0.43359-0.46094-0.86328-0.69531-1.2969-0.28516-0.53125-0.57422-1.0625-0.86719-1.5898-0.16797-0.30469-0.33984-0.60938-0.51172-0.91406-0.050781-0.085938-0.097656-0.17578-0.14844-0.26172-0.40234-0.70703-0.80859-1.4102-1.2266-2.1094-0.12109-0.20312-0.23828-0.41016-0.35938-0.61328-0.16406-0.27344-0.33203-0.54297-0.5-0.81641-1.8086-2.9688-3.7188-5.8789-5.7344-8.7148-0.90625-1.2773-1.9727-2.4688-2.8359-3.7734-0.19141-0.28906-0.28516-0.78516-0.51172-0.92188l-11.289 2.1836-28.816 5.5859-21.055 4.0781-40.348 7.8203h-0.007812c1.9336 6.0039 3.8203 12.004 5.293 18.141 1.4883 6.1992 2.6016 12.473 3.6406 18.762 0.99609 6.0547 1.7969 12.148 2.4961 18.246 0.72266 6.3203 1.2969 12.648 1.6914 18.996 0.37891 6.0898 0.53906 12.199 0.56641 18.301 0.03125 6.1953-0.019532 12.402-0.32422 18.59-0.32031 6.4922-0.8125 12.965-1.4688 19.434-0.60938 5.9961-1.3594 11.992-2.2695 17.953-0.96484 6.3359-1.9883 12.672-3.3477 18.938-1.2852 5.9258-2.8398 11.797-4.6992 17.57-0.52734 1.6328-1.0508 3.2656-1.5781 4.8984 0.003906 0 0.007812 0.003906 0.011718 0.003906l40.34 7.8203 14.273 2.7656 6.7812 1.3125 21.688 4.2031 7.1328 1.3828 11.414 2.2109c0.054687-0.042969 0.10938-0.42969 0.14062-0.50391 0.082031-0.19141 0.19922-0.36719 0.31641-0.53906 0.98438-1.4102 2.0977-2.7344 3.0938-4.1406 0.20703-0.28906 0.40234-0.58203 0.60547-0.875 0.36328-0.52734 0.72266-1.0547 1.0781-1.582 0.23047-0.34375 0.46094-0.6875 0.69141-1.0352 0.42969-0.64453 0.85156-1.293 1.2695-1.9453 0.63281-0.98828 1.2539-1.9805 1.8594-2.9805 0.68359-1.1289 1.3594-2.2656 2.0117-3.4102 0.042969-0.074219 0.082031-0.14844 0.12109-0.21875 0.11719-0.20703 0.23047-0.41406 0.34766-0.62109 0.37109-0.66797 0.74219-1.3359 1.1016-2.0117 0.16016-0.29688 0.31641-0.59375 0.47266-0.89063 0.86719-1.6523 1.6992-3.3242 2.5078-5.0039 0.30469-0.62891 0.60547-1.2617 0.90234-1.8945 0.40625-0.86719 0.80469-1.7344 1.1992-2.6094 0.38672-0.85938 0.76562-1.7266 1.1406-2.5898 0.14453-0.33203 0.29297-0.66406 0.4375-0.99609 0.125-0.28906 0.24219-0.57812 0.36328-0.86328 1.1055-2.6172 2.1641-5.2578 3.1836-7.9102 0.24219-0.62891 0.48828-1.2539 0.72656-1.8867 0.066407-0.1875 0.13672-0.375 0.20703-0.5625 0.55469-1.4922 1.1055-2.9844 1.6367-4.4844 0.023438-0.0625 0.042969-0.125 0.066407-0.18359 0.57422-1.625 1.1328-3.25 1.6797-4.8867 0.69141-2.0859 1.3594-4.1758 1.9766-6.2852 1.3398-4.5898 2.4375-9.2344 3.2656-13.945 0.13672-0.77344 0.25781-1.5469 0.38281-2.3203 0.52734-3.3867 0.95703-6.7852 1.3516-10.188 0.007812-0.078126 0.015624-0.15234 0.023437-0.23047 0.070313-0.60938 0.125-1.2227 0.19141-1.832 0.48438-4.8281 0.89844-9.6562 1.1992-14.496 0.10547-1.7656 0.19922-3.5312 0.26562-5.3008 0.13672-3.625 0.15625-7.2344 0.046875-10.855-0.011719-0.39453-0.023438-0.78906-0.039062-1.1797-0.015626-0.36719-0.03125-0.73047-0.046876-1.0977-0.039062-0.86328-0.085937-1.7266-0.13672-2.5898-0.015625-0.26953-0.03125-0.53906-0.046875-0.80859-0.039063-0.58984-0.078125-1.1797-0.12109-1.7695-0.078125-1.1602-0.16406-2.3164-0.25781-3.4727-0.027343-0.32422-0.050781-0.65234-0.078124-0.97656-0.0625-0.79297-0.13672-1.5859-0.20703-2.3789-0.16406-1.8984-0.34766-3.793-0.55469-5.6875 0-0.015625-0.003907-0.03125-0.003907-0.050781-0.23828-2.2188-0.50781-4.4375-0.79687-6.6484-0.054688-0.40625-0.10547-0.8125-0.16016-1.2188-0.023437-0.17578-0.050781-0.35156-0.078125-0.53125-0.18359-1.3008-0.38281-2.5977-0.60156-3.8906-0.089844-0.53906-0.17969-1.082-0.27734-1.6211-0.0625-0.34766-0.12891-0.69531-0.19531-1.043-0.14453-0.78125-0.30078-1.5625-0.46094-2.3398-0.050781-0.24609-0.10156-0.49219-0.15234-0.73438-0.19531-0.92969-0.40234-1.8555-0.61719-2.7773-0.03125-0.12891-0.058594-0.25781-0.085938-0.38281-0.26562-1.1016-0.53906-2.1992-0.82812-3.293zm-199.24-70.559-12.949 21.988c2.4023-0.089844 4.8086-0.17578 7.2109-0.26562 3.7578-0.13672 7.5156-0.27734 11.273-0.41406 2.2344-0.085937 4.4648-0.17188 6.6992-0.26562 0.99219-0.042969 1.9844-0.085937 2.9766-0.13281 2.2539-0.10547 4.5039-0.22656 6.7578-0.34375 3.668-0.18359 7.332-0.40625 11-0.62891 1.7148-0.10937 3.4297-0.21875 5.1406-0.34375 0.058594-0.003906 0.11719-0.007812 0.17188-0.011718 1.0117-0.074219 2.0234-0.14844 3.0312-0.23047 1.6914-0.13672 3.3789-0.29297 5.0664-0.47266 0.050781-0.003907 0.10156-0.011719 0.15625-0.015625 0.53906-0.058594 1.0781-0.125 1.6172-0.19141 1.2617-0.14844 2.5195-0.33203 3.7773-0.51172 3.3281-0.49219 6.6367-1.0625 9.9453-1.6719 0.17578-0.03125 0.35156-0.066406 0.52734-0.097656 1.4688-0.27344 2.9375-0.55859 4.4023-0.85156 0.51563-0.10156 1.0273-0.20703 1.543-0.3125 1.4375-0.29297 2.8789-0.58984 4.3125-0.89062 1.6016-0.33984 3.2031-0.67188 4.8047-1.0039 0.71484-0.14844 1.4297-0.30859 2.1484-0.46094 1.25-0.26562 2.5039-0.53125 3.7539-0.80859 4.1602-0.93359 8.3164-1.8672 12.477-2.8008 0.31641-0.070312 0.63281-0.14453 0.94922-0.21484 3.6836-0.82813 7.3672-1.6523 11.047-2.4844v-8.8359zm-129.51 2.7383-35.891 0.75781h-0.003906c0.71484 0.30469 1.4297 0.60938 2.1445 0.91797 0.097656 0.042969 0.20312 0.082031 0.30078 0.125 0.86719 0.37109 1.7344 0.74609 2.6016 1.1172 3.4609 1.4805 6.9219 2.957 10.379 4.4453 6.543 2.8164 13.086 5.6289 19.629 8.4453 1.668 0.71875 3.332 1.4414 5.0195 2.0977 3.1992 1.2227 6.4453 2.0625 9.8672 2.4727 0.82031 0.097656 1.6406 0.17188 2.4609 0.25h0.29688c1.4492 0.003906 2.8945 0.011719 4.3438 0.015625 0.14062 0 0.28125-0.003906 0.42188-0.007813 7.1016-0.03125 14.203-0.066406 21.305-0.097656 2.0898-0.007812 4.1758-0.019531 6.2656-0.027344 4.707-0.035156 9.4102-0.070312 14.117-0.10547 0.72656-0.003906 1.4531-0.011719 2.1797-0.015625 1.7539-0.03125 3.5117-0.070313 5.2656-0.10156 2.0312-0.035156 4.0625-0.070312 6.0938-0.10156 2.2969-0.046875 4.5938-0.09375 6.8867-0.14453 4.0547-0.085937 8.1133-0.16797 12.168-0.25391 0.035156-0.035156 0.066406-0.078125 0.097656-0.14062l4.6328-21.777zm-35.891 234.8 35.891 0.75781 100.58 2.1289-4.6406-21.812c-0.023437-0.046876-0.054687-0.082032-0.089844-0.10547-3.5664-0.074219-7.1289-0.14844-10.695-0.22266-3.0391-0.0625-6.0781-0.125-9.1172-0.1875-3.3555-0.058593-6.707-0.11328-10.062-0.17187-0.87891-0.015626-1.7578-0.019532-2.6367-0.03125-5.0742-0.039063-10.152-0.074219-15.227-0.11328-3.6211-0.015625-7.2461-0.035156-10.867-0.050781-5.3789-0.023437-10.754-0.050781-16.133-0.074219-1.3828 0.003906-2.7656 0.011719-4.1484 0.015625-0.054688 0.003907-0.10938 0.007813-0.16406 0.007813-0.26562 0.011718-0.53125 0.023437-0.79688 0.039062-0.65234 0.0625-1.3008 0.11719-1.9492 0.19531-3.7148 0.44531-7.2305 1.375-10.695 2.7773-1.6758 0.67969-3.3359 1.3945-4.9961 2.1172-0.53516 0.23438-1.0664 0.46875-1.6016 0.69531-1.5898 0.68359-3.1797 1.3672-4.7695 2.0508-3.6016 1.5508-7.207 3.0977-10.809 4.6484-4.875 2.0977-9.75 4.1914-14.621 6.2891-0.17188 0.074218-0.35156 0.14453-0.52344 0.21484-0.64453 0.28516-1.2852 0.55859-1.9258 0.83203zm273.24 5.7812v-8.8359c-3.1953-0.72266-6.3945-1.4375-9.5898-2.1562-4.8477-1.0898-9.6914-2.1797-14.539-3.2695-0.10547-0.023438-0.21094-0.046875-0.31641-0.070312-1.4766-0.33203-2.957-0.64453-4.4414-0.95703-0.80859-0.17188-1.6211-0.34766-2.4297-0.51953-1.7734-0.37109-3.5469-0.73438-5.3164-1.1094-3.9453-0.83594-7.9102-1.582-11.879-2.3164-0.94922-0.17578-1.8984-0.33984-2.8516-0.5-0.10156-0.015625-0.20312-0.035156-0.30469-0.050782-0.91797-0.15234-1.8398-0.29687-2.7578-0.4375-0.10547-0.015624-0.20703-0.03125-0.3125-0.046874-2.0469-0.30469-4.0977-0.57813-6.1484-0.81641-0.98047-0.11328-1.9648-0.21875-2.9492-0.3125-2.5273-0.24219-5.0586-0.42578-7.5898-0.59375-0.45312-0.03125-0.90625-0.0625-1.3594-0.089843-4.1016-0.25781-8.2031-0.51172-12.305-0.71484-1.7188-0.089844-3.4414-0.17969-5.1641-0.26562-1.3672-0.070313-2.7305-0.13672-4.0977-0.19141-0.12891-0.007812-0.25781-0.011718-0.38672-0.019531-2.9922-0.11719-5.9883-0.23828-8.9805-0.35547-2.7891-0.10156-5.5742-0.20703-8.3633-0.30859-2.9023-0.10547-5.8047-0.21484-8.707-0.32031l12.949 21.984zm-401.13-202.98c-2.0547 2.0859-2.8867 5.3281-3.6719 8.0508-1.1367 3.9258-1.9219 7.9453-2.6445 11.965-0.24609 1.3633-0.46875 2.7344-0.69531 4.1016-0.42969 2.5898-0.83984 5.1836-1.2266 7.7773-0.60938 4.1016-1.1719 8.2188-1.6523 12.336-0.25 2.1406-0.47266 4.2852-0.63281 6.4336-0.125 1.6523-0.25 3.3438-0.046875 4.9922 0.20312 1.6406 0.8125 3.207 1.2305 4.8008 0.41406 1.5664 0.69141 3.1523 0.77344 4.7734 0.20703 4.0664-0.039062 8.1914-0.03125 12.262 0.007812 3.9961-0.046875 7.9961 0.003906 11.992 0.046875 3.5898 0.16016 7.0273-0.77344 10.527-0.42578 1.5898-1.0312 3.1602-1.2188 4.8086-0.19531 1.6953-0.058594 3.4336 0.074219 5.125 0.32422 4.1367 0.84375 8.2539 1.3945 12.363 0.58594 4.3398 1.2578 8.6641 1.9375 12.992 0.050781 0.32422 0.10547 0.64844 0.15625 0.97266 0.55469 3.4648 1.1758 6.918 1.9141 10.348 0.79297 3.6836 1.6758 7.5273 3.2773 10.957 0.92578 1.9766 2.2383 3.7578 4.4844 4.2344 1.293 0.27344 2.6523 0.1875 3.957 0.054687 1.9961-0.20312 3.9844-0.52344 5.9609-0.85938 3.7031-0.625 7.6445-1.2891 11.09-2.8359 1.5859-0.71094 2.8711-1.7852 4.1992-2.8867v-0.007812c-0.019531-0.03125-0.042969-0.066407-0.0625-0.097657-2.0312-3.3789-3.3438-7.082-4.3906-10.867-0.007812-0.035156-0.019531-0.070313-0.03125-0.10547l-0.011718-0.046875c-0.023438-0.085938-0.050782-0.17188-0.074219-0.26172-0.33203-1.2227-0.63281-2.4492-0.92578-3.6797-0.10547-0.44922-0.20703-0.89844-0.30859-1.3477-0.19141-0.84766-0.375-1.6953-0.55078-2.5469-0.10937-0.52344-0.21875-1.043-0.32422-1.5664-0.23047-1.1641-0.44922-2.3281-0.66016-3.4922-0.023438-0.125-0.042969-0.25-0.0625-0.375 0-0.011719-0.003907-0.019531-0.003907-0.03125-0.25391-1.4609-0.49219-2.9258-0.72266-4.3906-0.003906-0.023438-0.007813-0.050782-0.011719-0.074219-0.003906-0.03125-0.007812-0.058594-0.011718-0.089844-0.17969-1.1602-0.34375-2.3203-0.50781-3.4844-0.14844-1.0586-0.28906-2.1211-0.42578-3.1797-0.035156-0.27344-0.074219-0.54688-0.10938-0.82031-0.007813-0.066406-0.015625-0.13281-0.023438-0.20312-0.17969-1.3984-0.33984-2.7969-0.5-4.1953-0.17969-1.5859-0.34375-3.1758-0.5-4.7617-0.050781-0.51953-0.10547-1.0352-0.15625-1.5547-0.011719-0.12109-0.019531-0.24609-0.03125-0.36719-0.035156-0.39844-0.082031-0.79297-0.11719-1.1914-0.054688-0.625-0.09375-1.25-0.14844-1.875-0.066406-0.78906-0.125-1.582-0.1875-2.375-0.22266-2.9492-0.42969-5.8984-0.56641-8.8477-0.03125-0.63281-0.039062-1.2656-0.0625-1.8945-0.03125-0.67188-0.066406-1.3438-0.089844-2.0156-1.3828 0.17188-2.8047 0.10938-4.1797-0.035156-0.53125-0.054688-1.0742-0.13281-1.5781-0.32031-0.16797-0.0625-0.33594-0.13672-0.49219-0.23047-1.4883-0.86328-1.5703-2.707-1.6055-4.2344-0.070313-3.3047-0.19922-6.6953 0.042968-9.9961 0.10547-1.4336 0.45703-2.8516 1.9102-3.4727 0.6875-0.29297 1.457-0.35938 2.1953-0.41797 1.2305-0.10156 2.4805-0.14844 3.707 0.003906h0.003906c0.027344-0.73047 0.058594-1.457 0.089844-2.1875 0.011719-0.28906 0.011719-0.57812 0.027344-0.86328 0.015625-0.35156 0.035156-0.70312 0.050781-1.0547 0.003907-0.050781 0.003907-0.097656 0.007813-0.14844 0.003906-0.058594 0.007812-0.11719 0.011718-0.17578 0.074219-1.5156 0.16016-3.0273 0.25781-4.5391 0-0.015625 0-0.027343 0.003906-0.042969 0.097657-1.4961 0.20703-2.9922 0.32422-4.4844 0.011719-0.15625 0.023438-0.30859 0.035156-0.46484 0.054688-0.68359 0.10547-1.3633 0.16016-2.0469 0.19531-2.3945 0.4375-4.7852 0.69922-7.1758v-0.007813c0.13281-1.2383 0.27344-2.4766 0.42188-3.7148 0.042969-0.33984 0.074219-0.67969 0.11719-1.0156 0.003906-0.015625 0.003906-0.035156 0.007812-0.050781 0.011719-0.097656 0.027344-0.19531 0.039063-0.29297 0.38672-3.1641 0.82812-6.3242 1.3281-9.4727 0.18359-1.1875 0.37891-2.3711 0.58203-3.5547 0.097656-0.57422 0.20703-1.1484 0.3125-1.7227 0.046875-0.26562 0.09375-0.52734 0.14453-0.79297 0.050782-0.28516 0.10938-0.57031 0.16406-0.85547 0.67578-3.5664 1.4688-7.1289 2.4844-10.613 0.21484-0.76172 0.44141-1.5195 0.68359-2.2695 0.050781-0.16016 0.10547-0.32422 0.16016-0.48438 0.089844-0.26953 0.17188-0.53906 0.26562-0.80469 0.027343-0.082032 0.0625-0.16016 0.09375-0.24609 0.70703-1.9766 1.5352-3.9062 2.5742-5.7461 0.17187-0.30078 0.35156-0.59766 0.53125-0.89844v-0.011719c-1.3828-1.1484-2.7227-2.25-4.3867-2.9727-1.6914-0.73047-3.5-1.2031-5.2891-1.625-3.832-0.90625-7.7695-1.6172-11.688-2-2.2773-0.22656-4.7773-0.25-6.5 1.5zm49.102-32.172c-0.61719 0.027343-1.2383 0.050781-1.8555 0.085937-2.5 0.13672-5.1406 0.16797-7.5938 0.73047-0.41016 0.09375-1.1836 0.23047-1.1445 0.78125 0.039062 0.54297 0.91797 0.98828 1.3203 1.2188 2.2539 1.2891 4.8359 2.082 7.2812 2.918 0.66016 0.22656 1.3281 0.4375 1.9922 0.65625 4.6953 1.5469 9.4531 2.9219 14.23 4.1875 5.3086 1.4062 10.711 2.8672 16.234 2.957 6.3281 0.10156 12.68-0.23438 19.004-0.375 5.3125-0.12109 10.629-0.30469 15.93-0.64062 1.1914-0.089844 2.3984-0.15234 3.5781-0.35938 0.53125-0.09375 1.4336-0.30078 0.51953-0.6875-0.015624-0.007813-0.035156-0.011719-0.050781-0.019531-1.0938-0.45703-2.3281-0.70703-3.4688-1.0156-2.918-0.78906-5.8516-1.5156-8.7812-2.2539-5.2812-1.3242-10.598-2.582-15.93-3.6641-5.9844-1.2148-11.992-2.3008-17.984-3.4766-2.5977-0.50781-5.1016-1.1094-7.7539-1.2305-2.9844-0.13672-5.9766-0.085938-8.9609-0.035157-1.8398 0.03125-3.6797 0.097657-5.5195 0.17188-0.35156 0.015624-0.69922 0.03125-1.0469 0.050781zm15.523 224.91c2.6523-0.12109 5.1562-0.72266 7.7539-1.2305 5.9922-1.1758 12-2.2617 17.984-3.4766 5.3359-1.082 10.652-2.3398 15.93-3.6641 2.9297-0.73438 5.8672-1.4609 8.7812-2.2539 1.1406-0.30859 2.3711-0.55469 3.4688-1.0156 0.015625-0.007813 0.035156-0.011719 0.050781-0.019532 0.91016-0.38672 0.011719-0.59375-0.51953-0.6875-1.1797-0.21094-2.3867-0.27344-3.5781-0.35937-5.3008-0.33594-10.621-0.51953-15.93-0.64063-6.3242-0.14453-12.676-0.48047-19.004-0.375-5.5195 0.089844-10.926 1.5508-16.234 2.957-4.7773 1.2656-9.5352 2.6445-14.23 4.1875-0.66406 0.21875-1.3281 0.42969-1.9883 0.65625-2.4453 0.83594-5.0273 1.6289-7.2812 2.918-0.40234 0.23047-1.2852 0.67578-1.3203 1.2188-0.039063 0.55078 0.73438 0.6875 1.1445 0.78125 2.4492 0.5625 5.0898 0.59766 7.5938 0.73047 0.61719 0.035157 1.2383 0.054688 1.8555 0.085938 0.34766 0.015625 0.69531 0.03125 1.043 0.046875 1.8398 0.078125 3.6797 0.14062 5.5195 0.17188 2.9844 0.050781 5.9766 0.10156 8.9609-0.03125zm523.93 19.312c3.8789-0.089844 7.7539-0.65625 11.508-1.6094 3.7812-0.95703 7.4531-2.3477 10.965-4.043 3.2188-1.5547 6.3711-3.3594 8.9961-5.8086 2.918-2.7227 5.4727-5.9023 7.9531-9.0273 2.543-3.207 4.9102-6.5312 7.0117-10.047 2.1094-3.5312 3.9727-7.207 5.7969-10.891 0.86719-1.7461 1.7422-3.5 2.5039-5.2969 0.38672-0.91016 0.84766-1.9375 0.86719-2.9492 0.042969-2.1562-2.0586-1.2031-3.2148-0.48047-1.7891 1.8633-3.8672 3.5039-5.7617 5.1055-3.5156 2.9688-7.1016 5.8633-10.719 8.7109-3.875 3.0508-7.7344 6.1211-11.648 9.125-3.9727 3.0469-7.9453 6.0898-11.977 9.0586-4.2031 3.0938-8.4609 6.1016-12.727 9.1055-0.35547 0.25-0.67578 0.54297-1.0469 0.72266l-0.17969 0.14062c-0.74609 0.47656-1.4688 0.99219-2.1758 1.5273-1.2734 0.96875-2.5977 2.0156-3.5664 3.3047-0.44531 0.58984-0.89844 1.3672-0.375 2.0469 0.37109 0.48438 1.0078 0.72656 1.6328 0.87891 0.003906 0 0.003906-0.003907 0.007812-0.003907l-0.007812 0.003907c0.27734 0.066406 0.55078 0.11719 0.80078 0.15625 1.7617 0.28516 3.5781 0.30859 5.3555 0.26953zm55.535-214.61c-0.30078-1.6719-1.1758-3.2656-1.9023-4.7812-1.1055-2.3086-2.2461-4.5977-3.4102-6.875-2.0977-4.0977-4.3633-8.1172-7.0039-11.891-2.7266-3.8984-5.75-7.5977-8.9141-11.148-2.8789-3.2266-6.0391-5.7305-9.8633-7.7617-3.9609-2.1016-8.1719-3.7891-12.508-4.9336-4.3555-1.1484-8.9023-1.7852-13.41-1.7305-0.67188 0.007812-3.0234-0.046875-4.7188 0.41406l0.042969 0.027344c-0.015625-0.007812-0.03125-0.019531-0.046875-0.027344-1.2188 0.33203-2.0977 0.92578-1.7617 2.0078 0.41797 1.3516 1.9609 2.5039 2.9805 3.3516 1.0469 0.87109 2.1641 1.6523 3.2852 2.4219h0.019531-0.019531c0.48438 0.33594 0.97266 0.66797 1.457 1.0078 4.2617 3 8.5117 6.0078 12.707 9.0977 4.0039 2.9492 7.9453 5.9766 11.891 9 3.8945 2.9844 7.7383 6.043 11.594 9.082 3.6797 2.8984 7.3242 5.8516 10.902 8.8711 1.8047 1.5234 3.7539 3.0977 5.457 4.8633 0.66016 0.4375 1.6211 1.0195 2.3906 0.95703 0.94531-0.070312 0.96094-1.25 0.83203-1.9531z" fill="#9b9b9b"/>
</svg>
